<svg xmlns="http://www.w3.org/2000/svg" viewBox="0 0 1080 1080"><defs><style>.cls-1{stroke:#1d1d1b;stroke-linecap:round;stroke-miterlimit:10;stroke-width:0.75px;}</style></defs><g id="Calque_2" data-name="Calque 2"><path class="cls-1" d="M933.86,344.28C881.3,192.53,690.55,143.36,570.17,251c-10.18,9.32-20.35,19.5-31.38,29.67-13.55-12.72-25.43-25.44-39-35.61-67.83-54.25-144.12-67-224.66-36.45C195.44,240,141.2,298.5,133.56,385c-1.7,16.11-1.7,49.18-.85,65.28,2.55,51.72,28.83,94.1,65.28,130.56Q335.33,719.43,474.36,858c39.85,39,88.17,39.84,128,0,92.41-91.56,184-184,275.52-275.52,29.68-29.68,49.18-63.59,60.19-103.43,3.39-11.87,6.79-22.89,8.49-34.76a255.8,255.8,0,0,0,0-50.87C944,376.5,938.94,360.39,933.86,344.28ZM849.93,551.14C757.52,644.39,665.11,736.8,571.86,830.05c-22,22.05-44.08,21.2-66.12-.85C411.63,736,318.38,643.54,226,549.44c-50.87-50.86-66.13-113.6-46.63-182.27C199.69,298.5,247.17,255.26,316.68,240c78-17.8,167.87,39,221.27,100.89,28.83-28,24.58-25.43,54.25-53.41,52.56-49.17,114.45-65.28,183.12-44.08,68.68,22,111.92,69.52,125.47,139.88C913.51,446.86,896.55,504.51,849.93,551.14Z"/><path class="cls-1" d="M849.93,551.14C757.52,644.39,665.11,736.8,571.86,830.05c-22,22.05-44.08,21.2-66.12-.85C411.63,736,318.38,643.54,226,549.44c-50.87-50.86-66.13-113.6-46.63-182.27C199.69,298.5,247.17,255.26,316.68,240c78-17.8,167.87,39,221.27,100.89,28.83-28,24.58-25.43,54.25-53.41,52.56-49.17,114.45-65.28,183.12-44.08,68.68,22,111.92,69.52,125.47,139.88C913.51,446.86,896.55,504.51,849.93,551.14Z"/></g></svg>