<svg xmlns="http://www.w3.org/2000/svg" viewBox="0 0 1080 1080"><defs><style>.cls-1{stroke:#1d1d1b;stroke-linecap:round;stroke-miterlimit:10;stroke-width:0.75px;}</style></defs><g id="Calque_2" data-name="Calque 2"><path class="cls-1" d="M829.23,396.27c-38.6-111.44-178.67-147.54-267.07-68.48-7.48,6.85-14.95,14.32-23,21.79-10-9.34-18.68-18.68-28.63-26.15-49.81-39.84-105.83-49.18-165-26.77-58.53,23-98.36,66-104,129.5-1.25,11.82-1.25,36.11-.63,47.93,1.87,38,21.18,69.11,47.94,95.88q100.86,101.79,203,203.58c29.26,28.63,64.75,29.26,94,0,67.86-67.24,135.1-135.1,202.33-202.34a167.94,167.94,0,0,0,44.2-76c2.49-8.72,5-16.81,6.23-25.52a186.54,186.54,0,0,0,0-37.36C836.7,419.93,833,408.1,829.23,396.27ZM767.6,548.18C699.74,616.66,631.88,684.52,563.39,753c-16.18,16.19-32.36,15.57-48.55-.62C445.73,683.9,377.25,616,309.39,546.93c-37.36-37.35-48.56-83.42-34.24-133.85C290.09,362.65,325,330.9,376,319.7c57.28-13.07,123.28,28.64,162.49,74.08,21.17-20.54,18.06-18.67,39.85-39.22,38.59-36.11,84-47.93,134.47-32.37C763.24,338.38,795,373.24,805,424.91,814.29,471.6,801.83,513.94,767.6,548.18Z"/><path class="cls-1" d="M769.05,548C701.2,616.5,633.33,684.36,564.85,752.84c-16.19,16.19-32.37,15.57-48.55-.62-69.11-68.48-137.6-136.34-205.45-205.45-37.36-37.35-48.56-83.42-34.25-133.85,14.94-50.43,49.81-82.18,100.86-93.38,57.28-13.07,123.27,28.64,162.49,74.08,21.17-20.54,18-18.67,39.84-39.22,38.6-36.11,84.05-47.93,134.48-32.37,50.43,16.19,82.18,51.05,92.13,102.72C815.74,471.44,803.29,513.78,769.05,548Z"/></g></svg>