<svg xmlns="http://www.w3.org/2000/svg" viewBox="0 0 1080 1080"><defs><style>.cls-1{fill:#1d1d1b;}</style></defs><g id="Calque_2" data-name="Calque 2"><path class="cls-1" d="M226.66,657.59C153.52,657.59,101.89,606,101.89,540s51.63-117.59,124.77-117.59c70.27,0,121.88,51.63,121.88,117.59S296.93,657.59,226.66,657.59Zm314.05,0C467.58,657.59,416,606,416,540s51.63-117.59,124.76-117.59C611,422.41,662.6,474,662.6,540S611,657.59,540.71,657.59Zm315.49,0C783.07,657.59,731.44,606,731.44,540S783.07,422.41,856.2,422.41c70.28,0,121.91,51.63,121.91,117.59S926.48,657.59,856.2,657.59Z"/></g></svg>