<svg xmlns="http://www.w3.org/2000/svg" viewBox="0 0 1080 1080"><defs><style>.cls-1{fill:#fff;}</style></defs><g id="Calque_2" data-name="Calque 2"><path class="cls-1" d="M555.8,889.1h49.84c74.46,0,148.92.12,223.37-.07,24.94-.06,40.51-15.69,39.32-38.46-8-154.23-133.35-282.64-286.68-293.72C410.84,544.51,264.39,669.56,248.38,841.43c-3.18,34.13,9.1,47.65,43.44,47.66Q423.81,889.14,555.8,889.1Zm2.41-379.39a158.61,158.61,0,0,0,158.4-160C716.18,262,643.9,190.37,556.4,190.9S398.69,263.81,399.32,352.51A157.7,157.7,0,0,0,558.21,509.71Z"/><path d="M537.8,867.49q-124,0-248,0c-32.26,0-43.79-12.27-40.81-43.19,15.05-155.77,152.61-269.1,313.07-257.91,144,10,261.77,126.42,269.3,266.18,1.11,20.64-13.51,34.81-36.93,34.87-70,.17-139.89.06-209.83.06Z"/><path d="M536.73,531.29A157.69,157.69,0,0,1,377.84,374.1c-.64-88.71,69.72-161.1,157.08-161.62s159.77,71.14,160.2,158.85A158.6,158.6,0,0,1,536.73,531.29Z"/></g></svg>